<mxfile host="app.diagrams.net" modified="2024-07-12T12:43:00.996Z" agent="Mozilla/5.0 (Windows NT 10.0; Win64; x64) AppleWebKit/537.36 (KHTML, like Gecko) Chrome/126.0.0.0 Safari/537.36 Edg/126.0.0.0" etag="y63rqwjRXgR_eiNkY06i" version="24.6.5" type="github">
  <diagram name="Page-1" id="Cgua1goSXuY_qWmoVQ8-">
    <mxGraphModel dx="1113" dy="603" grid="1" gridSize="10" guides="1" tooltips="1" connect="1" arrows="1" fold="1" page="1" pageScale="1" pageWidth="827" pageHeight="1169" math="0" shadow="0">
      <root>
        <mxCell id="0" />
        <mxCell id="1" parent="0" />
        <mxCell id="UqtHnh7pd3Q8jdgBEKsk-2" value="&lt;p class=&quot;MsoNormal&quot;&gt;&lt;u&gt;&lt;span style=&quot;mso-ansi-language:EN-US&quot;&gt;Entities&lt;/span&gt;&lt;/u&gt;&lt;span style=&quot;mso-ansi-language:EN-US&quot;&gt;: Field Origin &lt;/span&gt;&lt;/p&gt;&#xa;&#xa;&lt;p class=&quot;MsoNormal&quot;&gt;&lt;u&gt;&lt;span style=&quot;mso-ansi-language:EN-US&quot;&gt;Attributes&lt;/span&gt;&lt;/u&gt;&lt;span style=&quot;mso-ansi-language:EN-US&quot;&gt;: For Field: FieldName For Origin: OriginName&lt;/span&gt;&lt;/p&gt;&#xa;&#xa;&lt;p class=&quot;MsoNormal&quot;&gt;&lt;u&gt;&lt;span style=&quot;mso-ansi-language:EN-US&quot;&gt;Relationships&lt;/span&gt;&lt;/u&gt;&lt;span style=&quot;mso-ansi-language:EN-US&quot;&gt;: Field is associated with Origin&lt;/span&gt;&lt;/p&gt;" style="text;whiteSpace=wrap;html=1;" parent="1" vertex="1">
          <mxGeometry x="180" y="330" width="330" height="200" as="geometry" />
        </mxCell>
        <mxCell id="wtUSg03ihNb4U3m4p2Na-1" value="" style="rounded=0;whiteSpace=wrap;html=1;" vertex="1" parent="1">
          <mxGeometry x="60" y="80" width="120" height="60" as="geometry" />
        </mxCell>
        <mxCell id="wtUSg03ihNb4U3m4p2Na-2" value="" style="endArrow=classic;html=1;rounded=0;" edge="1" parent="1">
          <mxGeometry width="50" height="50" relative="1" as="geometry">
            <mxPoint x="190" y="120" as="sourcePoint" />
            <mxPoint x="290" y="110" as="targetPoint" />
            <Array as="points">
              <mxPoint x="200" y="110" />
            </Array>
          </mxGeometry>
        </mxCell>
      </root>
    </mxGraphModel>
  </diagram>
</mxfile>
